<?xml version="1.0" encoding="UTF-8"?>
<svg id="Favicon" xmlns="http://www.w3.org/2000/svg" version="1.1" viewBox="0 0 48 48">
  <!-- Generator: Adobe Illustrator 30.5.1, SVG Export Plug-In . SVG Version: 2.1.4 Build 3)  -->
  <defs>
    <style>
      .st0 {
        fill: #f70c2b;
      }

      .st1 {
        fill: #050706;
      }

      .st2 {
        fill: #f60b2a;
      }

      .st3 {
        fill: #fffffe;
      }
    </style>
  </defs>
  <rect class="st1" width="48" height="48"/>
  <g>
    <path class="st3" d="M12.55,27.27l6.7.06v4.01s-5.96.02-5.96.02c-2.47,0-4.84-.67-6.74-2.24-3.59-2.96-4.52-7.94-2.51-12.09,1.63-3.35,4.83-5.55,8.6-5.7l6.75-.02v4s-6.87,0-6.87,0c-3.26.34-5.56,3.19-5.33,6.47.21,2.87,2.34,5.29,5.35,5.49Z"/>
    <path class="st3" d="M29.09,36.61v-4.05s6.3,0,6.3,0c2.85-.22,5.09-2.41,5.45-5.23.43-3.31-1.45-6.62-4.88-6.91h-6.6s0-4.04,0-4.04h6.53c2.59.09,4.92,1.2,6.62,3.19,2.6,3.04,3.2,7.45,1.61,11.12-1.48,3.42-4.64,5.6-8.34,5.92h-6.68Z"/>
    <polygon class="st2" points="27.89 32.56 27.89 36.69 25.48 36.69 20.29 31.53 20.28 27.27 21.72 27.25 27.02 32.53 27.89 32.56"/>
    <polygon class="st0" points="28.38 20.43 26.8 20.45 21.81 15.47 20.68 15.46 20.67 11.31 23.26 11.32 28.37 16.4 28.38 20.43"/>
  </g>
</svg>